<svg width="45" height="49" viewBox="0 0 45 49" fill="none" xmlns="http://www.w3.org/2000/svg">
<path d="M22.5 18.6937C19.2786 18.6937 16.6667 21.304 16.6667 24.5233C16.6667 27.7431 19.2786 30.353 22.5 30.353C25.7218 30.353 28.3333 27.7431 28.3333 24.5233C28.3297 21.3056 25.7202 18.6974 22.5 18.6937ZM22.5 28.6874C20.199 28.6874 18.3333 26.8233 18.3333 24.5233C18.3333 22.2238 20.199 20.3593 22.5 20.3593C24.8014 20.3593 26.6667 22.2238 26.6667 24.5233C26.6642 26.8221 24.8002 28.6849 22.5 28.6874Z" fill="#0084F4"/>
<path d="M5 16.1953H6.66667V14.5297H4.16667C3.70646 14.5297 3.33333 14.9026 3.33333 15.3625V17.8609H5V16.1953Z" fill="#0084F4"/>
<path d="M5 31.1858H3.33333V33.6842C3.33333 34.1445 3.70646 34.517 4.16667 34.517H6.66667V32.8514H5V31.1858Z" fill="#0084F4"/>
<path d="M0 12.0313V37.0154C0 37.4757 0.373128 37.8482 0.833333 37.8482H44.1667C44.6273 37.8482 45 37.4757 45 37.0154V12.0313C45 11.5714 44.6273 11.1985 44.1667 11.1985H0.833333C0.373128 11.1985 0 11.5714 0 12.0313ZM1.66667 12.8641H43.3333V36.1826H1.66667V12.8641Z" fill="#0084F4"/>
<path d="M40.8333 20.3593C38.0733 20.3569 35.8362 18.1212 35.8333 15.3625C35.8333 14.9026 35.4606 14.5297 35 14.5297H10C9.53979 14.5297 9.16667 14.9026 9.16667 15.3625C9.16423 18.1212 6.92708 20.3569 4.16667 20.3593C3.70646 20.3593 3.33333 20.7322 3.33333 21.1921V27.8545C3.33333 28.3149 3.70646 28.6874 4.16667 28.6874C6.92708 28.6902 9.16423 30.9259 9.16667 33.6842C9.16667 34.1445 9.53979 34.517 10 34.517H35C35.4606 34.517 35.8333 34.1445 35.8333 33.6842C35.8362 30.9259 38.0733 28.6902 40.8333 28.6874C41.2939 28.6874 41.6667 28.3149 41.6667 27.8545V21.1921C41.6667 20.7322 41.2939 20.3593 40.8333 20.3593ZM40 27.0734C36.9812 27.4589 34.6041 29.8345 34.2183 32.8514H10.7817C10.3959 29.8345 8.01921 27.4589 5 27.0734V21.9733C8.01921 21.5878 10.3959 19.2126 10.7817 16.1953H34.2183C34.6041 19.2126 36.9812 21.5878 40 21.9733V27.0734Z" fill="#0084F4"/>
<path d="M40.8333 14.5297H38.3333V16.1953H40V17.8609H41.6667V15.3625C41.6667 14.9026 41.2939 14.5297 40.8333 14.5297Z" fill="#0084F4"/>
<path d="M40 32.8514H38.3333V34.517H40.8333C41.2939 34.517 41.6667 34.1445 41.6667 33.6842V31.1858H40V32.8514Z" fill="#0084F4"/>
<path d="M11.25 5.04683L12.0833 6.48756C17.7511 3.22142 24.6248 2.80583 30.6453 5.36482L27.1277 7.12192L27.8727 8.61267L32.8727 6.11426C33.0713 6.01667 33.2227 5.84344 33.2935 5.63402C33.3643 5.42419 33.3488 5.19485 33.2503 4.99681L30.7503 0L29.2586 0.744561L30.6751 3.57601C24.3127 1.09305 17.1659 1.63389 11.25 5.04683Z" fill="#0084F4"/>
<path d="M32.9167 43.1675L32.0833 41.7267C26.416 44.9925 19.5426 45.4085 13.5225 42.8495L17.0402 41.092L16.2952 39.6012L11.2952 42.0996C10.883 42.3054 10.7157 42.806 10.922 43.2175L13.422 48.2143L14.9133 47.4697L13.4969 44.6383C19.858 47.1196 27.0028 46.5788 32.9167 43.1675Z" fill="#0084F4"/>
</svg>
