<svg width="45" height="45" viewBox="0 0 45 45" fill="none" xmlns="http://www.w3.org/2000/svg">
<path d="M44.25 22.5C44.25 34.5122 34.5122 44.25 22.5 44.25C10.4878 44.25 0.75 34.5122 0.75 22.5C0.75 10.4878 10.4878 0.75 22.5 0.75C34.5122 0.75 44.25 10.4878 44.25 22.5Z" stroke="#BFBCC5" stroke-width="1.5"/>
<path d="M34.3133 13.214L22.882 8.77272C22.6365 8.67727 22.3638 8.67718 22.1182 8.77272L10.6869 13.2139C10.2813 13.3715 10.0142 13.7619 10.0142 14.1971V23.1593C10.0142 30.4081 15.1813 36.6653 22.3006 38.0376C22.3665 38.0503 22.4334 38.0566 22.5002 38.0566C22.567 38.0566 22.6338 38.0503 22.6998 38.0376C29.8189 36.6653 34.9861 30.408 34.9861 23.1593V14.1971C34.986 13.762 34.7188 13.3716 34.3133 13.214ZM32.8766 23.1593C32.8766 29.3312 28.5252 34.6678 22.5 35.9263C16.4746 34.6679 12.1234 29.3312 12.1234 23.1593V14.9188L22.5 10.8874L32.8766 14.9188V23.1593ZM22.1388 23.9436L26.6385 19.444C27.0504 19.0321 27.7182 19.0321 28.1301 19.444C28.542 19.8559 28.542 20.5236 28.1301 20.9355L22.8846 26.181C22.6787 26.387 22.4088 26.49 22.1388 26.49C21.8689 26.49 21.5989 26.387 21.3931 26.181L18.4738 23.2617C18.0619 22.8498 18.0619 22.1821 18.4738 21.7702C18.8857 21.3583 19.5535 21.3583 19.9654 21.7702L22.1388 23.9436Z" fill="#BFBCC5"/>
</svg>
