<svg width="45" height="45" viewBox="0 0 45 45" fill="none" xmlns="http://www.w3.org/2000/svg">
<path d="M44.25 22.5C44.25 34.5122 34.5122 44.25 22.5 44.25C10.4878 44.25 0.75 34.5122 0.75 22.5C0.75 10.4878 10.4878 0.75 22.5 0.75C34.5122 0.75 44.25 10.4878 44.25 22.5Z" stroke="#00C44E" stroke-width="1.5"/>
<path d="M34.3133 12.5128L22.882 8.07153C22.6365 7.97608 22.3638 7.97599 22.1182 8.07153L10.6869 12.5127C10.2813 12.6703 10.0142 13.0607 10.0142 13.4959V22.4581C10.0142 29.7069 15.1813 35.9641 22.3006 37.3364C22.3665 37.3491 22.4334 37.3555 22.5002 37.3555C22.567 37.3555 22.6338 37.3491 22.6998 37.3364C29.8189 35.9641 34.9861 29.7069 34.9861 22.4581V13.4959C34.986 13.0608 34.7188 12.6704 34.3133 12.5128ZM32.8766 22.4581C32.8766 28.63 28.5252 33.9667 22.5 35.2251C16.4746 33.9667 12.1234 28.63 12.1234 22.4581V14.2176L22.5 10.1862L32.8766 14.2176V22.4581ZM22.1388 23.2424L26.6385 18.7428C27.0504 18.3309 27.7182 18.3309 28.1301 18.7428C28.542 19.1547 28.542 19.8224 28.1301 20.2344L22.8846 25.4798C22.6787 25.6858 22.4088 25.7888 22.1388 25.7888C21.8689 25.7888 21.5989 25.6858 21.3931 25.4798L18.4738 22.5606C18.0619 22.1486 18.0619 21.4809 18.4738 21.069C18.8857 20.6571 19.5535 20.6571 19.9654 21.069L22.1388 23.2424Z" fill="#00C44E"/>
</svg>
