<svg width="45" height="45" viewBox="0 0 45 45" fill="none" xmlns="http://www.w3.org/2000/svg">
<path d="M44.25 22.5C44.25 34.5122 34.5122 44.25 22.5 44.25C10.4878 44.25 0.75 34.5122 0.75 22.5C0.75 10.4878 10.4878 0.75 22.5 0.75C34.5122 0.75 44.25 10.4878 44.25 22.5Z" stroke="#EE0F31" stroke-width="1.5"/>
<path d="M34.3133 12.5129L22.882 8.07162C22.6365 7.97617 22.3638 7.97608 22.1182 8.07162L10.6869 12.5128C10.2813 12.6704 10.0142 13.0608 10.0142 13.496V22.4582C10.0142 29.707 15.1813 35.9642 22.3006 37.3365C22.3665 37.3492 22.4334 37.3555 22.5002 37.3555C22.567 37.3555 22.6338 37.3492 22.6998 37.3365C29.8189 35.9642 34.9861 29.707 34.9861 22.4582V13.496C34.986 13.0609 34.7188 12.6705 34.3133 12.5129ZM32.8766 22.4582C32.8766 28.6301 28.5252 33.9667 22.5 35.2252C16.4746 33.9668 12.1234 28.6301 12.1234 22.4582V14.2177L22.5 10.1863L32.8766 14.2177V22.4582Z" fill="#EE0F31"/>
<path d="M23.3896 22.7989L28.8157 28.2251C29.0614 28.4707 29.0614 28.869 28.8157 29.1147C28.5701 29.3603 28.1718 29.3603 27.9262 29.1147L22.5 23.6885L17.0738 29.1147C16.8282 29.3603 16.4299 29.3603 16.1842 29.1147C15.9386 28.869 15.9386 28.4707 16.1842 28.2251L21.6104 22.7989L16.1842 17.3727C15.9386 17.1271 15.9386 16.7288 16.1842 16.4831C16.4299 16.2375 16.8282 16.2375 17.0738 16.4831L22.5 21.9093L27.9262 16.4831C28.1718 16.2375 28.5701 16.2375 28.8157 16.4831C29.0614 16.7288 29.0614 17.1271 28.8157 17.3727L23.3896 22.7989Z" fill="#EE0F31"/>
</svg>
