<svg width="8" height="14" viewBox="0 0 8 14" fill="none" xmlns="http://www.w3.org/2000/svg">
<path d="M4.54545 3.06059C5.21212 3.06059 5.75758 2.51514 5.75758 1.84847C5.75758 1.18181 5.21212 0.636353 4.54545 0.636353C3.87879 0.636353 3.33333 1.18181 3.33333 1.84847C3.33333 2.51514 3.87879 3.06059 4.54545 3.06059ZM2.30303 5.1212L0.606061 13.6667H1.87879L2.9697 8.81817L4.24242 10.0303V13.6667H5.45455V9.1212L4.18182 7.90908L4.54545 6.0909C5.33333 6.99999 6.54545 7.60605 7.87879 7.60605V6.39393C6.72727 6.39393 5.75758 5.78787 5.27273 4.93938L4.66667 3.96969C4.42424 3.60605 4.06061 3.36363 3.63636 3.36363C3.45455 3.36363 3.33333 3.42423 3.15152 3.42423L0 4.75756V7.60605H1.21212V5.54544L2.30303 5.1212Z" fill="#EE0F31"/>
</svg>
