<svg width="14" height="14" viewBox="0 0 14 14" fill="none" xmlns="http://www.w3.org/2000/svg">
<path d="M13.3744 10.7669C13.7148 11.109 13.7139 11.6611 13.3726 12.0024L11.375 14C5.0925 14 0 8.9075 0 2.625L0.0035 2.62762L2.0125 0.6195C2.35462 0.277375 2.9085 0.277375 3.25062 0.6195L5.50812 2.8805C5.84937 3.22263 5.8485 3.7765 5.50725 4.11775L3.5 6.125L7.875 10.5L9.87963 8.49537C10.2218 8.15325 10.7774 8.15325 11.1186 8.49712L13.3744 10.7669ZM14 7H12.25C12.25 4.10462 9.89538 1.75 7 1.75V0C10.8596 0 14 3.14037 14 7ZM10.5 7H8.75C8.75 6.03487 7.96513 5.25 7 5.25V3.5C8.93025 3.5 10.5 5.06975 10.5 7Z" fill="#5D5A65"/>
</svg>
