<svg width="20" height="21" viewBox="0 0 20 21" fill="none" xmlns="http://www.w3.org/2000/svg">
<path d="M19.5689 9.30182L16.3568 7.69587L19.5689 6.08977C20.1434 5.80258 20.144 4.97976 19.5689 4.69211L10.3495 0.0824034C10.1294 -0.0274678 9.8706 -0.0274678 9.65055 0.0824034L0.43113 4.69211C-0.143405 4.97946 -0.144015 5.80227 0.43113 6.08977L3.64319 7.69587L0.43113 9.30182C-0.143405 9.58917 -0.144015 10.4118 0.43113 10.6995L3.64319 12.3056L0.43113 13.9115C-0.143405 14.1989 -0.144015 15.0215 0.43113 15.3092L9.65055 19.9189C9.87014 20.0286 10.1289 20.0291 10.3495 19.9189L19.5689 15.3092C20.1434 15.0218 20.144 14.1992 19.5689 13.9115L16.3568 12.3056L19.5689 10.6995C20.1434 10.4123 20.144 9.58947 19.5689 9.30182ZM10 1.65478L17.4723 5.39102L10 9.1271L2.52769 5.39102L10 1.65478ZM17.4723 14.6104L10 18.3465L2.52769 14.6104L5.39029 13.1791L9.65055 15.3092C9.87029 15.4189 10.1289 15.4194 10.3495 15.3092L14.6097 13.1791L17.4723 14.6104ZM10 13.7368L2.52769 10.0007L5.39029 8.56935L9.65055 10.6995C9.87029 10.8092 10.1289 10.8097 10.3495 10.6995L14.6097 8.56935L17.4723 10.0007L10 13.7368Z" fill="white"/>
</svg>
