<svg width="16" height="16" viewBox="0 0 16 16" fill="none" xmlns="http://www.w3.org/2000/svg">
<path d="M8.02356 11.6189C6.0292 11.6189 4.41245 10.0022 4.41245 8.00782C4.41245 6.01346 6.0292 4.39671 8.02356 4.39671C10.0179 4.39671 11.6347 6.01346 11.6347 8.00782C11.6347 10.0022 10.0179 11.6189 8.02356 11.6189ZM8.02356 10.6189C9.46564 10.6189 10.6347 9.4499 10.6347 8.00782C10.6347 6.56574 9.46564 5.39671 8.02356 5.39671C6.58148 5.39671 5.41245 6.56574 5.41245 8.00782C5.41245 9.4499 6.58148 10.6189 8.02356 10.6189ZM15.1667 7.46404V8.53554C15.1674 9.00713 14.8487 9.41935 14.3922 9.53743L13.5877 9.74561C13.4833 10.0811 13.3486 10.4064 13.1854 10.7175L13.6064 11.4325C13.8454 11.8384 13.7797 12.3545 13.4467 12.6876L12.6885 13.4458C12.3554 13.7789 11.8393 13.8446 11.4334 13.6056L10.7183 13.1845C10.4146 13.3438 10.0973 13.4759 9.77022 13.5792L9.56013 14.3917C9.44232 14.848 9.03075 15.1667 8.55956 15.1667H7.48717C7.0161 15.1666 6.60476 14.8478 6.4869 14.3914L6.27949 13.5857C5.94905 13.4824 5.62851 13.3498 5.32172 13.1894L4.58462 13.6235C4.17876 13.8626 3.66261 13.7969 3.32956 13.4638L2.57135 12.7056C2.23828 12.3725 2.17258 11.8564 2.4114 11.4509L2.84428 10.7145C2.68316 10.4068 2.55001 10.0852 2.44645 9.75365L1.60834 9.53661C1.15222 9.41884 0.833491 9.0075 0.833336 8.53626V7.46408C0.833295 6.99285 1.15207 6.58128 1.60811 6.46353L2.45737 6.24383C2.55841 5.92714 2.68649 5.61971 2.8402 5.32496L2.39361 4.56666C2.15458 4.16079 2.22028 3.64465 2.55334 3.3116L3.31155 2.55338C3.64461 2.22031 4.16075 2.15462 4.56658 2.39363L5.32502 2.8402C5.62777 2.68219 5.94389 2.55123 6.26968 2.44885L6.48699 1.60837C6.60476 1.15226 7.0161 0.833529 7.48734 0.833374H8.55951C9.03075 0.833333 9.44232 1.15211 9.56014 1.60843L9.77824 2.45351C10.1009 2.5558 10.414 2.68614 10.7139 2.84304L11.4501 2.41031C11.8559 2.17129 12.3721 2.23698 12.7051 2.57004L13.4631 3.32804C13.7962 3.66109 13.8619 4.17724 13.6229 4.58306L13.1888 5.32022C13.3451 5.61915 13.4749 5.93115 13.577 6.25266L14.3918 6.46351C14.848 6.58137 15.1667 6.9929 15.1667 7.46404ZM14.1417 7.43172L13.0507 7.14943C12.8753 7.10403 12.7381 6.96724 12.6923 6.79191C12.5798 6.36199 12.4082 5.94978 12.1823 5.56708C12.0899 5.41045 12.0897 5.21597 12.182 5.05924L12.7612 4.07564C12.7689 4.06255 12.7668 4.0459 12.756 4.03515L11.998 3.27714C11.9873 3.2664 11.9706 3.26428 11.9572 3.27219L10.9743 3.84997C10.8175 3.94211 10.6231 3.9419 10.4666 3.84943C10.0831 3.6229 9.66989 3.45085 9.23894 3.33824C9.06343 3.29239 8.92653 3.15507 8.8812 2.97943L8.59188 1.85837C8.58808 1.84366 8.5748 1.83337 8.55956 1.83337H7.4875C7.4723 1.83338 7.45904 1.84366 7.4552 1.85853L7.16631 2.97587C7.1208 3.15188 6.98334 3.28932 6.80733 3.3348C6.37348 3.44692 5.95748 3.61926 5.57144 3.84679C5.41485 3.93908 5.2205 3.93913 5.06386 3.8469L4.05916 3.25532C4.04607 3.24761 4.02942 3.24973 4.01867 3.26048L3.26044 4.01871C3.24969 4.02946 3.24757 4.04611 3.25528 4.05919L3.84684 5.06364C3.93906 5.22022 3.93906 5.41451 3.84684 5.5711C3.62351 5.95033 3.45339 6.35848 3.34129 6.78407C3.2952 6.95904 3.15818 7.09546 2.98301 7.14077L1.85834 7.43172C1.84362 7.43552 1.83333 7.4488 1.83334 7.46404V8.5361C1.83334 8.55129 1.84362 8.56456 1.85868 8.56845L2.97424 8.85734C3.15047 8.90298 3.28797 9.04079 3.33321 9.21713C3.44581 9.65606 3.62002 10.0768 3.85063 10.4669C3.94319 10.6235 3.94344 10.818 3.85127 10.9748L3.27328 11.958C3.26557 11.9711 3.26769 11.9877 3.27844 11.9985L4.03667 12.7567C4.04742 12.7675 4.06407 12.7696 4.07713 12.7619L5.06069 12.1826C5.21746 12.0902 5.41202 12.0903 5.56869 12.1828C5.95821 12.4129 6.37829 12.5867 6.81646 12.6991C6.99305 12.7444 7.13099 12.8822 7.17644 13.0587L7.45524 14.1417C7.45904 14.1564 7.4723 14.1667 7.48734 14.1667H8.5596C8.5748 14.1667 8.58808 14.1564 8.59192 14.1415L8.87348 13.0526C8.91892 12.8769 9.05604 12.7396 9.23172 12.6939C9.66668 12.5808 10.0836 12.4072 10.4703 12.1781C10.627 12.0852 10.8218 12.085 10.9788 12.1774L11.9408 12.7439C11.9539 12.7516 11.9706 12.7495 11.9813 12.7387L12.7396 11.9805C12.7503 11.9697 12.7524 11.9531 12.7447 11.94L12.1783 10.978C12.0858 10.821 12.0861 10.6261 12.179 10.4693C12.4119 10.0764 12.5874 9.65225 12.7004 9.20969C12.7455 9.03307 12.8832 8.89499 13.0596 8.84932L14.1417 8.56931C14.1564 8.5655 14.1667 8.5522 14.1667 8.53626V7.464C14.1667 7.4488 14.1564 7.43552 14.1417 7.43172Z" fill="#5D5A65"/>
</svg>
