<svg width="45" height="45" viewBox="0 0 45 45" fill="none" xmlns="http://www.w3.org/2000/svg">
<path d="M44.25 22.5C44.25 34.5122 34.5122 44.25 22.5 44.25C10.4878 44.25 0.75 34.5122 0.75 22.5C0.75 10.4878 10.4878 0.75 22.5 0.75C34.5122 0.75 44.25 10.4878 44.25 22.5Z" stroke="#EE0F31" stroke-width="1.5"/>
<path d="M34.3133 13.214L22.882 8.77273C22.6365 8.67728 22.3638 8.67719 22.1182 8.77273L10.6869 13.2139C10.2813 13.3715 10.0142 13.7619 10.0142 14.1971V23.1593C10.0142 30.4081 15.1813 36.6653 22.3006 38.0376C22.3665 38.0503 22.4334 38.0567 22.5002 38.0567C22.567 38.0567 22.6338 38.0503 22.6998 38.0376C29.8189 36.6653 34.9861 30.4081 34.9861 23.1593V14.1971C34.986 13.762 34.7188 13.3716 34.3133 13.214ZM32.8766 23.1593C32.8766 29.3312 28.5252 34.6679 22.5 35.9263C16.4746 34.6679 12.1234 29.3312 12.1234 23.1593V14.9188L22.5 10.8874L32.8766 14.9188V23.1593Z" fill="#EE0F31"/>
</svg>
