<svg width="20" height="20" viewBox="0 0 20 20" fill="none" xmlns="http://www.w3.org/2000/svg">
<path d="M18.8281 9.57957V7.22053C18.8281 6.06154 17.9064 5.11442 16.7578 5.07307V3.62508C16.7578 2.87086 16.1445 2.25725 15.3906 2.25725H11.6266L11.1406 0.905554C11.0166 0.56086 10.7658 0.285417 10.4342 0.129992C10.1027 -0.0254716 9.73055 -0.042042 9.38652 0.0832516L2.55625 2.5704C2.21258 2.69554 1.9384 2.94718 1.78418 3.27898C1.62996 3.61078 1.6143 3.98271 1.74012 4.32631L2.01453 5.07569C0.89207 5.14513 0 6.08034 0 7.22053V17.8505C0 19.0358 0.963789 20 2.14844 20H16.6797C17.8643 20 18.8281 19.0358 18.8281 17.8505V15.4133C19.4898 15.3182 20 14.7476 20 14.0597V10.9332C20 10.2454 19.4898 9.6747 18.8281 9.57957ZM18.8281 14.0597C18.8281 14.1674 18.7405 14.2551 18.6328 14.2551H15.5078C14.5386 14.2551 13.75 13.4662 13.75 12.4965C13.75 11.5267 14.5386 10.7378 15.5078 10.7378H18.6328C18.7405 10.7378 18.8281 10.8255 18.8281 10.9332V14.0597ZM2.84047 3.92299C2.81621 3.85675 2.83398 3.80083 2.84676 3.77335C2.85953 3.74592 2.89082 3.69625 2.95707 3.67213L9.7873 1.18498C9.85363 1.16087 9.90953 1.17881 9.93699 1.19167C9.96445 1.20452 10.014 1.23602 10.0379 1.30246L10.3813 2.25729H10.1172C9.36332 2.25729 8.75 2.8709 8.75 3.62512V5.07112H3.2609L2.84047 3.92299ZM15.5859 3.62508V5.07108H9.92188V3.62508C9.92188 3.51733 10.0095 3.42968 10.1172 3.42968H15.3906C15.4983 3.42968 15.5859 3.51733 15.5859 3.62508ZM16.6797 18.8276H2.14844C1.60996 18.8276 1.17188 18.3893 1.17188 17.8505V7.22053C1.17188 6.6818 1.60996 6.2435 2.14844 6.2435H16.6797C17.2182 6.2435 17.6562 6.6818 17.6562 7.22053V9.56539H15.5078C13.8924 9.56539 12.5781 10.8803 12.5781 12.4965C12.5781 14.1126 13.8924 15.4275 15.5078 15.4275H17.6562V17.8505C17.6562 18.3893 17.2182 18.8276 16.6797 18.8276Z" fill="white"/>
<path d="M15.5078 13.0827C15.8314 13.0827 16.0938 12.8202 16.0938 12.4965C16.0938 12.1727 15.8314 11.9102 15.5078 11.9102C15.1842 11.9102 14.9219 12.1727 14.9219 12.4965C14.9219 12.8202 15.1842 13.0827 15.5078 13.0827Z" fill="white"/>
</svg>
